<?xml version="1.0" standalone="no"?>
<!DOCTYPE svg PUBLIC "-//W3C//DTD SVG 20010904//EN"
 "http://www.w3.org/TR/2001/REC-SVG-20010904/DTD/svg10.dtd">
<svg version="1.0" xmlns="http://www.w3.org/2000/svg"
 width="300.000000pt" height="300.000000pt" viewBox="0 0 300.000000 300.000000"
 preserveAspectRatio="xMidYMid meet">
<metadata>
Created by potrace 1.10, written by Peter Selinger 2001-2011
</metadata>
<g transform="translate(0.000000,300.000000) scale(0.100000,-0.100000)"
fill="#000000" stroke="none">
<path d="M547 2993 c-2 -5 0 -71 3 -148 l7 -140 1 148 c2 135 0 160 -11 140z"/>
<path d="M1944 2965 c1 -19 2 -35 3 -35 4 0 33 58 33 65 0 3 -8 5 -18 5 -15 0
-18 -8 -18 -35z"/>
<path d="M2661 2993 c-22 -5 -23 -7 -15 -61 5 -31 8 -86 8 -121 -1 -58 0 -63
12 -46 8 10 14 26 14 34 0 9 2 58 5 109 2 50 3 91 2 91 -1 -1 -13 -4 -26 -6z"/>
<path d="M1561 2938 c1 -42 3 -48 9 -28 12 36 12 80 0 80 -6 0 -10 -24 -9 -52z"/>
<path d="M1880 2958 c-13 -18 -29 -37 -37 -41 -7 -4 -13 -13 -13 -19 0 -6 -11
-26 -25 -44 -31 -41 -31 -45 0 -31 14 7 25 18 25 25 0 6 7 12 15 12 13 0 21
25 16 53 -1 4 12 15 28 25 17 9 32 25 35 34 7 29 -18 20 -44 -14z"/>
<path d="M2066 2974 c-9 -23 -8 -24 14 -24 11 0 20 7 20 16 0 9 5 12 13 8 6
-4 9 -3 4 1 -14 16 -45 15 -51 -1z"/>
<path d="M1135 2939 c-9 -17 -13 -34 -10 -37 8 -8 38 33 41 54 4 25 -15 15
-31 -17z"/>
<path d="M2990 2903 c-1 -38 -3 -151 -6 -253 -2 -102 -9 -405 -15 -675 -6
-269 -14 -546 -17 -613 -4 -68 -4 -126 -1 -127 3 -2 15 -2 26 1 l21 6 2 864
c0 475 -2 864 -5 864 -3 0 -5 -30 -5 -67z"/>
<path d="M1640 2936 c0 -9 -4 -16 -10 -16 -5 0 -10 -8 -10 -17 0 -15 2 -16 10
-3 9 13 11 13 20 0 8 -12 10 -9 10 12 0 15 -4 30 -10 33 -5 3 -10 -1 -10 -9z"/>
<path d="M2234 2922 c3 -4 -13 -19 -35 -32 -21 -14 -39 -31 -39 -39 0 -11 4
-11 18 2 10 10 24 17 32 17 11 0 60 45 60 56 0 2 -9 4 -21 4 -11 0 -18 -4 -15
-8z"/>
<path d="M2050 2895 c-7 -13 -17 -22 -23 -18 -5 3 -12 1 -16 -4 -3 -5 -27 -24
-53 -42 -27 -17 -48 -37 -48 -42 0 -6 12 -2 28 9 15 10 38 22 52 25 25 6 100
72 100 88 0 19 -27 8 -40 -16z"/>
<path d="M2103 2872 c-24 -25 -41 -48 -38 -50 3 -3 -1 -12 -9 -21 -19 -22 -29
-58 -18 -65 12 -7 122 168 111 177 -2 2 -23 -17 -46 -41z"/>
<path d="M1079 2857 c-7 -15 -20 -29 -30 -32 -9 -3 -20 -12 -23 -20 -10 -26
18 -15 54 20 26 26 31 38 22 47 -8 8 -14 5 -23 -15z"/>
<path d="M1588 2849 c-3 -17 -1 -32 4 -35 12 -8 15 -4 23 27 5 18 2 28 -8 32
-11 4 -16 -3 -19 -24z"/>
<path d="M2195 2804 c-25 -25 -45 -52 -45 -60 0 -21 17 -17 23 6 3 12 14 20
26 20 14 0 21 6 21 20 0 10 9 24 20 30 11 6 20 15 20 20 0 21 -22 8 -65 -36z"/>
<path d="M2320 2809 c-13 -23 6 -26 35 -6 17 13 17 14 -4 20 -15 3 -24 -1 -31
-14z"/>
<path d="M1747 2769 c-15 -18 -25 -34 -22 -37 7 -8 57 46 53 58 -2 6 -16 -4
-31 -21z"/>
<path d="M1958 2771 c-10 -10 -18 -20 -18 -23 0 -11 49 17 55 30 7 18 -17 14
-37 -7z"/>
<path d="M1541 2768 c1 -7 -1 -21 -6 -31 -10 -23 0 -33 18 -19 16 13 28 6 21
-12 -7 -19 22 -39 46 -31 29 9 26 33 -4 28 -19 -4 -26 2 -39 36 -15 38 -41 58
-36 29z"/>
<path d="M1163 2742 c-13 -2 -23 -7 -23 -12 0 -4 -11 -11 -25 -14 -24 -6 -24
-8 -10 -22 13 -14 18 -14 33 -2 9 7 21 19 25 26 11 17 30 15 23 -3 -4 -11 1
-15 18 -15 25 0 43 -28 49 -75 l3 -30 12 28 c6 15 27 35 47 44 19 9 35 20 35
25 0 4 7 8 16 8 18 0 15 31 -4 38 -7 2 -11 -1 -10 -8 2 -7 -6 -17 -17 -23 -10
-7 -25 -18 -33 -24 -16 -16 -52 -17 -52 -2 0 6 5 20 11 31 10 18 9 20 -5 15
-10 -4 -29 -1 -44 6 -15 7 -37 11 -49 9z"/>
<path d="M1413 2698 c3 -20 13 -53 23 -73 19 -40 17 -46 -17 -47 -29 0 -69
-18 -69 -30 0 -4 22 -8 49 -8 28 0 53 -4 56 -10 11 -18 26 -10 20 10 -3 11 -3
20 2 20 4 0 18 3 31 6 18 5 22 2 22 -15 0 -26 39 -29 76 -5 17 12 38 15 68 12
37 -5 45 -2 49 13 12 45 67 8 82 -54 4 -14 14 -28 22 -31 13 -5 15 4 12 61
l-4 68 36 0 c20 0 43 7 53 17 41 41 97 34 123 -15 16 -29 18 -30 21 -10 2 12
-2 31 -8 43 -11 21 1 34 31 29 26 -3 37 1 43 17 5 13 1 15 -16 11 -13 -3 -84
-6 -158 -7 -103 -1 -143 -5 -167 -18 -30 -15 -33 -15 -51 1 -26 24 -36 22 -66
-17 -45 -60 -119 -55 -148 10 -12 26 -44 35 -34 8 3 -9 6 -20 6 -25 0 -5 9 -9
21 -9 15 0 20 -5 17 -22 -2 -19 -9 -23 -38 -23 -32 0 -36 3 -45 40 -5 22 -18
51 -29 65 l-18 25 5 -37z m410 -61 c-19 -32 -28 -35 -46 -19 -17 15 -21 15
-52 -2 -39 -21 -63 -14 -37 12 21 21 148 29 135 9z"/>
<path d="M2177 2679 c4 -22 1 -27 -21 -33 -22 -5 -26 -12 -26 -40 0 -18 7 -50
15 -69 14 -34 14 -37 -4 -47 -30 -16 -41 -12 -41 14 0 13 -7 37 -15 52 -8 16
-15 24 -15 18 0 -7 -27 -20 -60 -30 -63 -19 -72 -27 -42 -42 21 -11 38 -6 63
19 25 25 39 24 39 -4 0 -33 -31 -58 -79 -64 -34 -5 -43 -2 -65 22 -21 22 -26
39 -27 79 l0 51 -13 -40 c-7 -22 -12 -63 -11 -92 1 -36 -3 -54 -12 -58 -15 -5
-63 22 -63 36 0 5 -4 9 -10 9 -17 0 -11 -27 13 -57 29 -35 54 -116 38 -121
-16 -5 -14 -22 3 -22 8 0 16 -5 18 -12 2 -6 4 18 4 53 -1 35 -5 67 -11 71 -5
4 3 11 18 17 15 6 27 18 27 27 0 12 5 14 18 8 9 -4 27 -7 40 -7 19 1 21 -2 11
-13 -7 -8 -14 -12 -17 -10 -5 6 -63 -32 -74 -48 -6 -9 26 -73 43 -86 3 -3 9
-15 13 -27 4 -13 12 -23 17 -23 5 0 9 -7 9 -15 0 -8 8 -15 18 -15 11 0 29 -9
42 -20 20 -17 22 -23 12 -46 -15 -31 -15 -64 -2 -64 6 0 10 10 10 23 0 29 33
57 67 57 33 0 83 -45 83 -75 0 -17 -10 -25 -42 -36 -24 -8 -46 -13 -50 -11 -5
1 -9 -6 -10 -15 0 -10 -2 -25 -2 -33 -1 -8 4 -25 12 -37 11 -17 21 -21 48 -17
20 2 33 0 30 -5 -3 -5 6 -17 21 -27 15 -9 35 -27 45 -38 17 -20 17 -20 11 17
-5 35 -4 37 21 37 14 0 35 5 45 12 10 6 26 8 35 5 24 -10 19 -42 -9 -55 -28
-13 -29 -21 -14 -93 12 -54 5 -68 -32 -69 -16 0 -35 41 -30 68 1 6 -5 12 -13
12 -8 0 -19 6 -23 14 -4 8 -25 26 -45 40 -34 23 -38 24 -38 7 0 -10 8 -29 18
-42 33 -46 52 -87 52 -115 l0 -28 17 24 c9 14 18 27 20 30 3 3 9 -3 14 -13 6
-9 17 -17 25 -17 12 0 12 -3 2 -20 -9 -13 -19 -18 -32 -14 -10 3 -16 2 -13 -3
3 -5 -3 -16 -14 -23 -10 -8 -19 -20 -19 -26 0 -6 -10 -14 -22 -18 -22 -5 -22
-6 -4 -19 24 -17 15 -34 -23 -42 -26 -5 -50 -36 -57 -73 -1 -7 -9 -24 -18 -37
-8 -13 -23 -55 -31 -94 -17 -73 -28 -84 -51 -53 -12 16 -13 15 -14 -5 0 -13 4
-23 9 -23 18 0 22 -69 6 -99 -8 -17 -15 -37 -15 -47 0 -9 -14 -45 -31 -81 -31
-66 -32 -96 -1 -52 9 13 16 26 15 29 -1 3 4 12 12 20 7 8 16 29 20 47 3 17 13
37 21 44 12 10 14 6 14 -25 0 -42 -24 -106 -39 -106 -6 0 -11 -9 -11 -19 0
-11 -5 -23 -11 -27 -8 -5 -6 -10 5 -16 10 -5 16 -19 15 -31 -4 -59 5 -64 11
-6 3 36 16 85 28 108 24 46 29 115 10 156 -9 19 -8 38 2 82 7 32 18 63 23 70
5 7 19 45 32 85 13 40 28 74 34 76 6 2 11 10 11 17 0 7 22 32 50 55 27 23 49
45 49 48 -7 48 19 55 51 15 l21 -28 -6 25 c-20 76 -20 73 14 68 19 -3 36 1 42
9 6 7 20 13 30 13 14 0 19 -7 19 -30 0 -23 -5 -30 -19 -30 -26 0 -30 -16 -18
-83 9 -48 15 -61 35 -68 32 -12 139 -123 176 -182 17 -26 34 -47 39 -47 6 0 7
20 3 48 -7 49 7 588 25 947 6 116 13 276 16 356 l6 145 -261 0 -260 -1 5 -26z
m469 -12 c6 -5 -8 -418 -21 -677 -2 -41 -5 -189 -7 -327 -2 -139 -5 -253 -8
-253 -3 0 -4 -19 -1 -42 3 -40 3 -42 -15 -28 -10 8 -43 39 -72 68 -29 28 -60
52 -69 52 -10 0 -14 6 -10 20 3 11 2 18 -3 15 -14 -9 -19 50 -5 65 29 33 34
63 13 93 -18 26 -24 27 -67 22 -25 -3 -39 -2 -31 2 8 5 16 13 17 18 0 6 2 17
4 25 2 8 0 32 -5 53 -6 30 -3 43 13 64 28 34 26 57 -5 87 -23 20 -31 23 -50
13 -31 -13 -40 -3 -26 28 7 15 9 43 6 64 -5 30 -2 45 15 67 22 32 23 47 1 82
-11 16 -24 22 -52 22 -42 0 -43 2 -26 29 9 15 9 29 -1 62 -7 23 -9 44 -4 48
29 20 41 53 30 86 -5 19 -14 32 -19 29 -4 -3 -8 0 -8 7 0 8 -12 10 -40 5 -38
-6 -54 4 -29 20 7 4 9 25 6 57 -7 52 13 116 37 118 82 6 121 11 125 15 7 6
300 -2 307 -9z m-406 -255 c0 -21 -7 -32 -25 -40 -29 -13 -32 -37 -10 -89 22
-51 19 -63 -12 -63 -27 0 -29 4 -51 92 -24 96 -20 114 20 104 10 -2 22 2 29
10 6 8 20 14 30 14 14 0 19 -7 19 -28z m-135 -49 c14 -15 25 -38 25 -50 0 -18
-9 -24 -55 -34 -55 -12 -64 -23 -32 -43 12 -8 22 -5 41 13 45 42 70 7 29 -41
-18 -20 -78 -32 -101 -19 -9 5 -24 29 -33 53 -9 26 -21 42 -30 41 -16 -3 -52
54 -43 68 8 13 42 11 48 -3 3 -10 8 -9 18 3 39 46 96 51 133 12z m199 -205 c9
-36 8 -38 -24 -49 -35 -13 -35 -14 -13 -81 15 -48 15 -52 -1 -64 -26 -19 -43
-7 -49 34 -6 41 -11 61 -26 112 -6 19 -11 36 -11 37 0 2 15 3 34 3 18 0 39 7
46 15 18 22 37 18 44 -7z m-104 -164 c0 -42 -51 -83 -77 -62 -20 16 -15 31 20
55 39 26 57 28 57 7z m30 -89 c-7 -8 -19 -15 -26 -15 -8 0 -14 7 -14 15 0 10
10 15 26 15 22 0 25 -2 14 -15z"/>
<path d="M2013 2325 c-3 -9 -3 -18 0 -22 11 -10 57 7 57 22 0 20 -49 20 -57 0z"/>
<path d="M999 2696 c-2 -2 -100 -6 -218 -8 l-213 -3 -2 -613 c0 -336 1 -612 3
-612 12 0 90 57 91 66 0 6 13 17 29 24 16 6 41 25 55 41 14 16 33 29 41 29 12
0 13 12 8 63 -6 63 -5 64 31 100 20 20 36 39 36 42 0 3 -15 5 -34 5 -102 0
-143 176 -54 230 18 10 25 20 19 24 -6 4 -15 5 -19 2 -5 -3 -24 0 -43 5 -49
15 -76 79 -71 166 2 23 45 73 63 73 6 0 7 5 4 11 -4 6 -14 8 -23 4 -30 -11
-81 26 -98 72 -46 119 42 228 155 195 34 -11 44 -20 61 -59 24 -54 25 -76 5
-93 -19 -16 -19 -34 0 -27 31 12 25 -15 -10 -48 l-36 -35 31 0 c60 0 118 -97
86 -145 -21 -31 -20 -35 4 -35 28 0 25 -25 -5 -38 -14 -6 -25 -16 -25 -21 0
-5 -8 -12 -17 -14 -10 -3 -3 -5 15 -6 47 -1 77 -25 92 -72 11 -32 11 -47 2
-72 -10 -26 -9 -33 4 -40 14 -8 11 -14 -17 -43 -30 -31 -31 -34 -12 -34 12 0
28 -3 37 -6 13 -5 16 2 16 39 0 26 5 57 12 71 9 21 8 33 -7 66 -10 22 -24 45
-32 51 -23 20 -15 39 17 39 26 0 31 -5 36 -30 4 -16 13 -35 20 -41 12 -9 14
-3 14 40 0 34 4 51 13 51 13 0 25 17 58 79 35 67 127 171 152 171 23 0 47 17
47 32 0 19 -59 7 -74 -14 -9 -12 -17 -19 -17 -15 -1 4 -2 12 -3 17 -3 26 -21
11 -27 -22 -3 -20 -12 -44 -19 -53 -12 -14 -16 -10 -31 37 l-17 53 -1 -88 c-1
-84 -2 -88 -27 -97 -14 -6 -27 -10 -29 -10 -2 0 -11 23 -20 50 -23 69 -39 65
-32 -9 4 -47 2 -61 -10 -65 -33 -13 -45 -4 -74 57 -16 34 -36 72 -45 84 -15
22 -15 23 7 32 27 10 49 -2 49 -28 0 -9 10 -29 21 -46 l21 -30 -6 61 c-5 57
-4 62 19 72 29 13 36 5 54 -56 16 -57 24 -47 22 29 -2 58 -1 60 21 57 21 -3
23 1 20 35 -3 33 0 37 21 37 19 0 26 -7 31 -30 9 -47 23 -35 25 22 0 28 5 56
10 61 5 5 5 22 0 40 -4 18 -11 44 -14 60 -4 20 -11 27 -29 27 -33 0 -37 -19
-19 -90 17 -67 17 -65 -14 -74 -20 -6 -23 -4 -23 18 0 14 -4 28 -10 31 -5 3
-12 28 -16 55 -11 80 -27 48 -21 -41 4 -59 2 -81 -8 -89 -25 -21 -49 -6 -63
35 -7 22 -20 47 -29 55 -14 14 -15 9 -8 -49 5 -48 3 -66 -7 -72 -29 -19 -46
-8 -68 44 -12 28 -34 67 -47 86 -21 27 -23 35 -12 42 29 18 46 9 63 -36 24
-61 40 -59 33 5 -5 44 -4 51 15 61 18 10 25 8 40 -11 10 -12 18 -30 18 -39 0
-10 7 -26 15 -37 15 -18 16 -14 13 46 -3 61 -2 65 20 68 33 5 28 32 -6 32 -16
0 -31 -2 -33 -4z m21 -266 c0 -6 -8 -14 -17 -17 -10 -4 -21 -11 -25 -16 -3 -6
-31 -11 -61 -12 -42 -2 -54 0 -51 10 4 8 16 11 35 8 20 -3 39 2 57 16 29 22
62 28 62 11z m-385 -112 c3 -7 -1 -31 -9 -53 l-14 -40 0 53 c-1 48 12 70 23
40z m16 -199 c13 -19 32 -41 41 -49 15 -13 17 -21 8 -50 -13 -44 -13 -101 -1
-132 5 -13 25 -39 43 -58 l34 -34 -13 -51 c-8 -27 -11 -60 -8 -73 4 -17 -3
-31 -32 -57 -21 -19 -43 -35 -49 -35 -6 0 -19 -9 -29 -20 -10 -11 -23 -20 -29
-20 -8 0 -11 91 -10 308 1 169 2 321 4 337 l2 30 8 -31 c4 -18 18 -47 31 -65z"/>
<path d="M0 2656 c0 -8 9 -17 19 -21 26 -8 26 -20 24 -594 -2 -487 -4 -579
-16 -598 -6 -10 12 -31 41 -47 9 -6 12 124 12 633 l0 641 -40 0 c-28 0 -40 -4
-40 -14z"/>
<path d="M1343 2643 c-25 -16 -30 -38 -12 -48 12 -8 49 23 49 41 0 21 -13 23
-37 7z"/>
<path d="M1958 2599 c-10 -5 -18 -17 -18 -26 0 -12 6 -14 28 -8 33 8 46 20 38
34 -9 14 -26 14 -48 0z"/>
<path d="M663 2560 c-56 -34 -54 -116 5 -167 34 -29 57 -29 102 -1 l35 23 -29
3 c-16 2 -33 -1 -39 -7 -33 -33 -87 7 -87 64 0 45 20 66 71 75 51 10 59 3 59
-52 0 -43 15 -51 24 -13 7 27 -7 62 -33 82 -24 18 -72 15 -108 -7z"/>
<path d="M1738 2505 c-4 -19 -1 -25 13 -25 22 0 23 8 5 33 -13 16 -14 16 -18
-8z"/>
<path d="M1280 2511 c0 -5 -9 -11 -20 -14 -21 -5 -28 -41 -10 -52 5 -3 33 -8
62 -11 45 -4 50 -3 31 7 -13 7 -23 16 -23 21 0 4 -8 8 -17 9 -14 0 -13 2 4 9
24 10 62 8 81 -4 7 -4 21 -4 33 -1 27 9 7 35 -21 28 -11 -3 -20 0 -20 6 0 7
-20 11 -50 11 -27 0 -50 -4 -50 -9z"/>
<path d="M690 2476 c0 -42 18 -56 37 -30 20 27 12 58 -14 62 -20 3 -23 -1 -23
-32z"/>
<path d="M1540 2482 c-8 -4 -16 -21 -17 -38 -3 -30 -1 -32 43 -38 25 -3 50 -3
55 0 18 11 8 23 -23 26 -17 2 -33 9 -36 16 -3 10 8 12 42 11 40 -2 46 -6 46
-24 0 -12 3 -25 7 -29 9 -8 65 53 61 66 -4 12 -156 20 -178 10z"/>
<path d="M1455 2460 c-8 -25 -57 -60 -83 -60 -12 0 -28 -10 -37 -22 -14 -21
-14 -24 2 -35 9 -7 25 -13 34 -13 10 0 22 -6 26 -14 4 -7 22 -21 38 -30 53
-29 69 -40 135 -95 35 -29 70 -55 77 -58 7 -3 13 -11 13 -19 0 -7 11 -16 24
-20 14 -3 27 -15 30 -28 3 -12 17 -35 30 -49 14 -15 22 -27 18 -27 -4 0 2 -7
12 -15 11 -8 16 -15 12 -15 -5 0 -4 -6 1 -12 6 -7 11 -42 12 -78 1 -37 7 -68
14 -72 9 -6 9 -10 1 -15 -7 -5 -13 -47 -15 -106 -4 -93 -6 -100 -31 -122 -16
-13 -28 -28 -28 -32 0 -4 -18 -28 -41 -53 -41 -46 -60 -79 -52 -92 6 -11 45
29 88 92 21 30 46 63 56 73 9 10 24 39 32 63 12 38 12 46 -1 65 -12 17 -12 28
-4 58 20 68 23 93 11 107 -9 11 -9 21 0 40 15 33 14 65 -1 59 -12 -5 -26 20
-62 105 -18 42 -48 80 -62 80 -8 0 -14 6 -14 13 0 16 -88 100 -98 93 -5 -3
-26 11 -48 29 -21 19 -57 44 -80 55 -22 11 -51 30 -64 42 -23 22 -23 23 -5 27
11 2 25 7 32 13 7 6 28 -1 60 -21 27 -16 64 -33 83 -36 19 -3 40 -11 48 -17
10 -9 15 -9 22 1 5 9 18 11 37 7 25 -6 31 -3 36 13 8 31 34 25 42 -9 6 -30 21
-47 32 -37 4 5 -2 28 -33 126 -6 18 -32 -4 -45 -37 -9 -24 -12 -24 -100 -20
-81 4 -92 7 -116 31 -23 23 -25 29 -15 51 10 23 7 36 -9 36 -4 0 -10 -9 -14
-20z"/>
<path d="M745 2308 c-35 -21 -54 -52 -55 -91 0 -30 7 -44 36 -72 20 -19 44
-35 53 -35 21 0 78 27 86 41 9 13 -46 7 -71 -8 -18 -12 -25 -10 -47 8 -22 16
-27 29 -27 63 0 50 13 66 56 66 18 0 36 5 39 10 14 22 24 8 27 -37 4 -59 28
-72 28 -15 0 32 -6 45 -26 61 -29 23 -68 27 -99 9z"/>
<path d="M762 2238 c-16 -16 -15 -43 3 -58 21 -18 47 5 43 39 -3 29 -27 38
-46 19z"/>
<path d="M1133 2065 c40 -37 57 -43 57 -22 0 17 -54 57 -77 57 -13 0 -8 -9 20
-35z"/>
<path d="M2088 2069 c-25 -14 -22 -29 6 -29 25 0 51 22 39 33 -9 10 -25 8 -45
-4z"/>
<path d="M815 2048 c-59 -32 -73 -105 -29 -157 21 -25 33 -31 66 -31 40 0 78
14 78 29 0 5 -21 4 -47 0 -26 -5 -55 -7 -64 -4 -37 12 -47 97 -14 125 6 5 33
13 59 16 l46 5 0 -45 c0 -46 13 -68 24 -40 13 33 5 64 -21 89 -29 27 -65 32
-98 13z"/>
<path d="M1086 2032 c-3 -3 -6 -13 -6 -23 0 -12 11 -19 39 -24 22 -4 42 -13
45 -21 7 -19 62 -18 70 1 3 10 -1 15 -13 15 -11 0 -21 5 -23 11 -4 13 -104 50
-112 41z"/>
<path d="M2047 2009 c17 -29 18 -29 21 -8 2 12 -2 26 -10 30 -25 16 -29 9 -11
-22z"/>
<path d="M1393 2013 c-52 -4 -69 -18 -37 -30 8 -3 45 -2 82 3 37 5 86 7 110 3
29 -4 42 -2 42 6 0 12 -83 27 -125 23 -11 -1 -44 -3 -72 -5z"/>
<path d="M832 1978 c-17 -17 -15 -43 3 -58 24 -20 39 4 36 53 -1 20 -21 23
-39 5z"/>
<path d="M1385 1940 c-11 -17 6 -32 31 -27 14 2 25 -1 28 -9 4 -10 25 -14 71
-14 65 0 105 11 105 30 0 15 -58 12 -63 -2 -3 -10 -9 -9 -23 4 -22 19 -139 33
-149 18z"/>
<path d="M1117 1851 c-21 -22 -33 -42 -27 -46 8 -5 90 67 90 80 0 16 -31 -1
-63 -34z"/>
<path d="M1318 1848 c7 -7 12 -21 12 -31 0 -18 -5 -19 -65 -12 -55 6 -65 4
-65 -9 0 -9 12 -19 26 -22 32 -8 113 1 126 14 14 14 -12 72 -31 72 -12 0 -12
-3 -3 -12z"/>
<path d="M859 1771 c-29 -29 -36 -60 -23 -108 10 -38 23 -26 21 21 -3 60 21
86 79 86 39 0 43 -2 47 -27 l4 -28 2 29 c3 60 -79 77 -130 27z"/>
<path d="M902 1728 c-16 -16 -15 -48 1 -48 22 0 39 17 35 35 -4 23 -20 29 -36
13z"/>
<path d="M1033 1732 c-9 -5 4 -14 37 -26 46 -17 49 -20 55 -61 7 -43 -6 -85
-25 -85 -6 0 -10 -6 -10 -14 0 -7 -14 -19 -31 -26 -16 -7 -42 -28 -56 -46 -14
-19 -32 -34 -40 -34 -10 0 -13 -6 -9 -16 4 -10 2 -14 -6 -11 -7 2 -11 11 -9
18 5 22 4 59 -3 66 -10 10 -15 -1 -18 -40 -2 -30 -7 -38 -31 -47 -16 -5 -33
-7 -38 -4 -5 3 -9 -2 -9 -10 0 -15 -11 -20 -38 -17 -7 1 -12 -2 -11 -6 5 -27
-3 -53 -15 -53 -8 0 -17 -6 -19 -12 -3 -7 -6 -2 -7 12 -1 14 -4 19 -7 13 -2
-7 -11 -13 -19 -13 -8 0 -19 -11 -24 -25 -10 -26 -11 -27 -50 -30 -14 -2 -31
-4 -39 -6 -7 -2 -16 2 -18 9 -3 9 2 13 13 12 11 -1 28 -2 39 -1 32 2 -30 31
-66 31 -23 0 -29 5 -29 21 0 18 5 20 53 18 42 -2 53 -7 59 -23 6 -20 6 -19 7
3 1 13 -13 41 -30 63 -28 34 -36 39 -68 36 -29 -2 -39 -9 -53 -36 -20 -40 -11
-78 33 -133 l28 -36 -44 -43 c-44 -43 -44 -44 -28 -71 17 -28 70 -59 103 -59
10 0 21 -4 24 -8 3 -5 19 -7 36 -4 16 2 30 0 30 -4 0 -5 -17 -38 -37 -74 -19
-36 -44 -81 -55 -100 -32 -57 -19 -123 34 -177 23 -23 60 -49 82 -56 l41 -14
-4 -95 c-2 -78 0 -97 14 -111 14 -15 16 -42 15 -212 -1 -164 2 -195 14 -195
15 0 24 50 25 142 0 25 1 50 2 55 1 4 1 56 0 115 -1 74 -5 107 -12 105 -6 -1
-14 4 -16 11 -3 6 1 12 7 12 6 0 4 7 -6 17 -11 12 -13 18 -5 21 9 3 9 7 0 18
-12 14 -3 94 10 94 4 0 7 10 6 22 -1 13 2 29 7 35 6 7 8 19 5 27 -3 8 1 20 8
26 11 9 18 8 32 -6 15 -14 18 -36 19 -123 2 -98 -2 -121 -29 -179 -7 -15 -11
-96 -12 -205 0 -165 2 -182 18 -185 16 -3 17 11 17 180 0 143 3 189 15 212 8
15 15 34 15 42 0 24 23 27 39 5 14 -18 21 -20 41 -13 14 5 48 13 75 16 59 8
64 11 92 52 21 29 21 31 4 46 -15 13 -32 14 -87 8 -38 -4 -76 -4 -84 0 -8 4
-21 5 -29 2 -9 -3 -5 -11 15 -27 26 -21 31 -22 67 -9 44 16 97 19 97 6 0 -33
-127 -72 -182 -56 -30 9 -33 14 -35 49 -1 22 -2 42 -3 45 -6 20 -5 52 2 56 5
3 5 11 -1 18 -7 8 -5 46 5 116 23 158 23 155 -6 152 -24 -3 -25 -1 -22 38 5
47 31 57 33 13 l1 -28 8 30 c4 17 8 64 9 106 0 41 6 80 11 85 7 7 4 16 -9 28
-15 14 -24 15 -40 7 -31 -17 -41 -13 -41 17 0 32 16 52 41 52 9 0 19 6 22 13
9 23 89 127 98 127 15 0 48 33 42 43 -3 5 -18 -3 -33 -18 -28 -27 -50 -27 -50
1 0 8 8 18 18 21 9 4 28 18 43 32 14 14 39 37 56 50 66 52 78 113 29 163 -12
13 -25 31 -29 41 -7 18 -51 23 -74 9z m-83 -356 c0 -16 -16 -41 -45 -70 -25
-26 -45 -43 -45 -39 -1 5 -18 -12 -40 -36 -21 -25 -36 -49 -33 -54 3 -4 11 0
18 10 12 16 14 17 20 1 4 -9 3 -36 -2 -60 -7 -34 -14 -45 -36 -52 -37 -13 -43
-3 -17 32 12 17 20 36 18 43 -5 14 -64 -69 -60 -84 4 -15 -28 -19 -44 -6 -9 8
-28 12 -43 11 -31 -3 -92 20 -111 42 -11 14 -7 23 26 60 26 30 45 43 58 41 23
-5 102 36 121 62 13 17 15 17 30 -4 24 -34 47 -30 43 6 -3 33 19 55 85 86 20
9 37 21 37 26 0 5 5 9 10 9 6 0 10 -11 10 -24z m-20 -246 c0 -5 -4 -12 -10
-15 -5 -3 -8 -20 -6 -38 7 -56 -18 -97 -58 -97 -15 0 -16 3 -6 15 10 12 10 18
0 30 -8 9 -10 27 -6 47 4 18 7 40 7 48 0 11 12 16 40 17 21 1 39 -2 39 -7z
m-114 -81 c0 -8 -6 -22 -14 -31 -10 -12 -12 -21 -5 -30 6 -7 11 -72 12 -144 1
-107 -1 -133 -14 -144 -8 -7 -15 -22 -15 -35 0 -34 -10 -37 -49 -13 -77 48
-111 92 -111 144 0 29 65 154 87 167 7 4 13 14 13 22 0 28 24 65 41 65 10 0
21 5 24 11 9 14 30 6 31 -12z m59 -99 c-15 -16 -21 -18 -33 -8 -13 11 -11 14
9 19 40 11 43 10 24 -11z m-1 -46 c9 -8 16 -18 17 -22 7 -63 7 -182 0 -182
-16 0 -21 15 -22 64 -2 30 -7 46 -15 46 -9 0 -13 16 -13 55 1 58 7 65 33 39z"/>
<path d="M713 1134 c-35 -39 -38 -47 -14 -35 20 11 46 49 39 56 -2 2 -13 -8
-25 -21z"/>
<path d="M1130 1730 c0 -12 36 -35 69 -45 17 -5 22 -4 19 6 -3 8 -13 14 -24
14 -13 0 -18 6 -16 18 2 12 -4 17 -23 17 -14 0 -25 -4 -25 -10z"/>
<path d="M1247 1699 c-4 -16 1 -19 35 -19 28 0 39 -4 35 -12 -3 -9 6 -13 26
-13 52 0 40 19 -27 41 -62 21 -64 21 -69 3z"/>
<path d="M1215 1631 c-24 -5 -26 -8 -12 -14 20 -8 75 2 83 14 6 10 -26 10 -71
0z"/>
<path d="M804 1585 c11 -8 25 -15 32 -15 7 0 27 -12 44 -26 46 -39 47 -22 0
20 -26 23 -50 36 -68 36 -26 -1 -26 -1 -8 -15z"/>
<path d="M0 1322 c0 -41 4 -72 10 -72 6 0 10 -11 10 -25 0 -14 4 -25 10 -25 5
0 9 -18 8 -40 -1 -23 4 -46 10 -52 16 -16 17 55 1 84 -6 11 -17 59 -25 106 -7
46 -16 87 -19 90 -3 3 -5 -27 -5 -66z"/>
<path d="M100 1381 c0 -5 7 -12 16 -15 16 -6 16 -10 0 -113 -1 -7 -5 -16 -9
-19 -11 -11 -8 -54 3 -54 6 0 10 11 10 24 0 13 7 40 15 59 19 47 19 91 -1 111
-17 18 -34 21 -34 7z"/>
<path d="M1604 1349 c-16 -18 -16 -19 0 -19 10 0 24 6 31 14 12 12 12 15 1 19
-8 3 -22 -3 -32 -14z"/>
<path d="M1141 1199 c-1 -83 2 -120 10 -117 6 2 10 7 10 11 -1 4 -1 57 -1 117
0 61 -4 110 -9 110 -5 0 -10 -54 -10 -121z"/>
<path d="M1557 1279 c-21 -22 -35 -44 -32 -49 4 -6 -5 -31 -19 -56 -14 -26
-26 -54 -26 -63 0 -10 -16 -44 -36 -77 -33 -55 -35 -62 -24 -96 6 -21 15 -38
19 -38 5 0 14 -13 21 -30 7 -16 21 -32 31 -35 17 -6 19 -12 13 -43 -10 -55
-30 -83 -90 -127 -30 -22 -60 -45 -67 -51 -33 -29 -71 -39 -167 -44 -11 0 -10
-4 4 -12 29 -16 107 -11 152 11 21 11 62 41 89 67 28 26 53 49 58 50 4 1 11 2
15 3 10 1 37 77 36 100 -1 31 -15 60 -34 66 -17 5 -50 60 -50 84 0 6 4 19 9
29 5 9 14 37 21 61 15 56 28 42 31 -34 2 -60 13 -90 31 -79 5 3 6 14 3 25 -4
10 -2 19 3 19 10 0 32 -65 32 -96 1 -11 7 -30 15 -44 14 -23 15 -21 11 40 -3
48 -13 82 -35 127 -17 33 -34 75 -37 92 -7 34 22 151 38 151 4 0 8 6 8 14 0 7
9 25 20 39 41 52 10 49 -43 -4z"/>
<path d="M1333 1219 c28 -16 59 -20 105 -14 67 10 49 20 -40 22 -60 1 -78 -1
-65 -8z"/>
<path d="M2885 1202 c-16 -2 -36 -9 -43 -15 -7 -6 -38 -14 -69 -18 -66 -9 -95
-29 -42 -29 53 -1 106 -56 100 -104 -2 -14 2 -17 14 -12 9 3 18 6 21 6 5 0
-45 91 -57 105 -15 16 -10 25 15 25 13 0 29 6 36 14 6 8 28 16 48 18 20 2 30
5 22 8 -8 3 -28 4 -45 2z"/>
<path d="M330 1170 c0 -23 17 -25 43 -6 25 19 21 26 -13 26 -23 0 -30 -4 -30
-20z"/>
<path d="M1637 1176 c-5 -11 35 -66 49 -66 2 0 -3 16 -11 36 -8 20 -15 38 -15
40 0 10 -18 2 -23 -10z"/>
<path d="M1710 1177 c0 -13 19 -37 30 -37 14 0 6 28 -12 39 -14 9 -18 8 -18
-2z"/>
<path d="M1586 1157 c-5 -9 -5 -29 0 -45 7 -25 8 -26 11 -4 3 12 3 32 0 45 -3
19 -4 20 -11 4z"/>
<path d="M2602 1133 c-19 -8 -3 -23 25 -23 42 0 87 -28 111 -70 26 -45 28 -68
7 -76 -8 -4 -15 -14 -15 -23 0 -10 3 -12 8 -5 4 6 15 10 25 8 14 -2 17 4 15
34 -6 94 -107 183 -176 155z"/>
<path d="M56 1078 c-10 -33 -26 -135 -26 -165 0 -21 -6 -36 -15 -39 -12 -5
-15 -24 -14 -93 l1 -86 13 70 c7 39 19 86 28 107 15 36 34 218 22 218 -3 0 -7
-6 -9 -12z"/>
<path d="M1200 1075 c-7 -9 -20 -13 -28 -10 -10 4 -13 0 -9 -15 4 -14 -4 -27
-26 -45 l-32 -25 27 0 c19 0 33 9 49 33 13 17 29 36 36 40 15 9 18 37 4 37 -5
0 -14 -7 -21 -15z"/>
<path d="M1254 1073 c-3 -10 -10 -26 -15 -35 -14 -27 -2 -21 37 17 l35 35 -26
0 c-16 0 -28 -7 -31 -17z"/>
<path d="M1647 1005 c3 -38 11 -108 19 -155 8 -47 14 -88 14 -92 0 -5 7 -8 15
-8 9 0 15 9 15 25 0 13 -7 50 -15 82 -8 31 -15 78 -15 104 0 28 -6 51 -14 59
-8 6 -17 21 -19 33 -2 12 -2 -9 0 -48z"/>
<path d="M554 956 c0 -42 -6 -73 -17 -90 -10 -14 -13 -26 -9 -26 11 0 62 75
62 89 0 5 -5 22 -12 38 -6 15 -10 34 -9 41 1 6 -2 12 -6 12 -4 0 -8 -29 -9
-64z"/>
<path d="M1745 973 c2 -16 4 -31 4 -36 1 -4 12 -5 25 -1 18 4 26 1 30 -14 9
-28 36 -37 36 -11 0 11 -8 23 -17 26 -10 4 -30 19 -45 35 -34 35 -38 35 -33 1z"/>
<path d="M2287 993 c-24 -6 -47 -54 -47 -98 0 -47 24 -102 55 -126 l24 -20
-21 -45 c-21 -42 -21 -47 -8 -86 12 -33 26 -48 65 -72 46 -27 59 -30 168 -34
64 -2 117 -9 117 -14 0 -5 5 -6 11 -2 6 3 9 15 6 25 -3 11 -2 17 3 14 4 -3 11
16 15 42 4 31 9 42 15 33 9 -15 17 8 22 65 2 24 9 31 31 35 15 3 33 14 40 26
7 12 24 40 40 62 17 26 27 55 27 78 0 28 3 35 18 32 26 -5 44 23 24 38 -12 9
-20 6 -39 -15 -19 -22 -24 -24 -33 -11 -8 12 -10 9 -10 -12 0 -16 -4 -28 -10
-28 -5 0 -10 -12 -10 -27 0 -17 -14 -46 -35 -72 -19 -24 -35 -48 -35 -53 0 -5
-13 -7 -30 -3 -26 6 -31 3 -40 -20 -5 -14 -10 -62 -10 -106 l0 -79 -87 6 c-99
8 -186 34 -220 66 -39 37 -24 156 18 143 10 -3 26 -2 36 4 33 17 163 52 172
47 5 -4 12 -20 16 -36 6 -26 11 -30 39 -30 44 0 48 6 24 46 -26 44 -18 64 25
64 19 0 48 5 64 11 26 8 32 17 36 47 6 48 2 51 -17 14 -13 -26 -24 -32 -63
-38 -36 -5 -55 -14 -74 -36 -22 -25 -30 -28 -46 -20 -11 6 -34 9 -51 6 -19 -3
-32 -1 -32 5 0 19 -15 12 -25 -11 -12 -26 -62 -43 -99 -34 -22 5 -70 45 -63
52 1 1 22 -1 47 -6 46 -8 80 6 80 34 0 6 -4 5 -9 -2 -6 -10 -22 -11 -59 -6
-52 7 -83 27 -66 43 9 9 84 0 117 -14 14 -6 17 -2 17 24 0 23 -10 41 -35 66
-33 34 -54 39 -98 28z m81 -48 c12 -14 22 -27 22 -30 0 -5 -102 5 -108 10 -9
8 13 35 31 38 12 2 25 5 28 6 3 0 15 -10 27 -24z"/>
<path d="M2972 969 c-13 -5 -28 -7 -33 -3 -5 3 -9 0 -9 -5 0 -6 15 -10 35 -8
20 1 35 7 35 15 0 6 -1 12 -2 11 -2 0 -14 -4 -26 -10z"/>
<path d="M1908 918 c7 -7 12 -25 12 -40 0 -17 5 -27 13 -25 6 1 11 -6 9 -15
-1 -9 2 -19 8 -23 6 -3 10 4 10 17 0 13 6 30 13 37 10 11 8 12 -9 7 -18 -5
-24 -1 -32 24 -6 16 -17 30 -23 30 -10 0 -10 -3 -1 -12z"/>
<path d="M1755 898 c-3 -7 -1 -26 4 -43 9 -29 9 -29 10 13 1 41 -5 54 -14 30z"/>
<path d="M2898 884 c-4 -3 9 -49 28 -102 45 -123 53 -156 63 -272 l8 -95 2
155 c1 124 -2 160 -14 177 -12 16 -12 22 -2 26 9 4 9 6 0 6 -7 1 -19 18 -28
39 -30 68 -42 82 -57 66z"/>
<path d="M1771 798 c-1 -9 3 -19 8 -22 5 -3 12 -25 15 -48 8 -51 20 -73 34
-64 7 4 6 15 -4 34 -7 15 -14 40 -14 55 0 16 -4 26 -10 22 -6 -3 -14 4 -19 17
-7 16 -10 18 -10 6z"/>
<path d="M1974 739 c6 -30 16 -63 22 -74 6 -11 17 -41 25 -67 7 -27 17 -48 22
-48 4 0 5 -5 2 -10 -4 -6 -11 -8 -16 -5 -5 3 -6 -1 -2 -10 4 -12 8 -13 13 -5
5 8 10 9 14 2 3 -6 2 -13 -4 -17 -15 -9 -12 -25 5 -25 8 0 15 7 15 16 0 14 3
14 15 4 8 -7 16 -9 16 -4 3 23 -4 50 -15 56 -7 4 -21 35 -30 70 -10 35 -22 73
-27 86 -5 13 -9 32 -9 42 0 13 -5 18 -15 13 -9 -3 -22 2 -29 12 -11 15 -11 9
-2 -36z"/>
<path d="M1612 730 c-1 -14 7 -41 18 -60 15 -27 19 -30 20 -15 0 11 -6 29 -14
40 -7 11 -16 29 -19 40 -4 16 -5 16 -5 -5z"/>
<path d="M1509 663 c-5 -36 19 -157 44 -218 17 -43 10 -175 -13 -259 -30 -106
-25 -186 11 -186 15 0 17 5 13 29 -4 16 1 51 9 78 9 26 16 84 17 128 1 44 3
105 4 135 2 37 -5 74 -20 118 -13 35 -23 67 -22 70 1 4 -4 20 -10 35 -7 16
-12 37 -12 47 0 18 -19 39 -21 23z"/>
<path d="M1070 650 c0 -6 8 -13 18 -16 9 -3 34 -14 54 -24 20 -11 42 -20 49
-20 20 0 -8 27 -52 49 -43 23 -69 27 -69 11z"/>
<path d="M218 618 l21 -37 -116 -3 c-163 -4 -159 -23 4 -23 l128 0 55 -52 c51
-49 80 -65 80 -44 0 4 -17 20 -38 35 -22 15 -52 43 -68 63 -16 21 -42 51 -58
68 l-28 30 20 -37z"/>
<path d="M947 644 c-4 -4 -4 -10 -2 -14 6 -10 55 0 55 11 0 10 -43 12 -53 3z"/>
<path d="M2742 632 c-17 -11 -4 -43 17 -40 11 2 17 -6 19 -27 2 -16 9 -34 15
-38 9 -6 9 -10 0 -14 -7 -2 -13 -15 -13 -28 0 -33 -10 -56 -22 -49 -5 3 -17
-1 -26 -9 -31 -27 -72 -26 -72 3 0 14 -7 20 -24 20 -19 0 -25 -6 -28 -30 -3
-21 0 -30 11 -32 12 -3 15 -25 15 -133 l1 -130 25 -1 c17 0 24 -5 21 -15 -3
-8 -6 -35 -7 -62 -2 -40 0 -47 16 -47 11 0 19 7 19 17 1 10 4 35 7 56 4 23 2
43 -6 52 -11 13 -12 48 -11 218 1 33 5 47 13 45 6 -2 20 4 31 15 16 16 21 17
28 6 4 -8 6 -24 3 -35 -7 -26 11 -41 20 -18 3 9 3 26 0 40 -4 14 -2 24 4 24 7
0 12 31 14 78 3 71 5 77 23 74 28 -5 30 -9 15 -27 -17 -21 -7 -29 19 -15 30
15 26 37 -8 45 -21 4 -33 15 -40 36 -8 23 -16 29 -38 29 -15 0 -34 -4 -41 -8z"/>
<path d="M1773 460 c-1 -102 -9 -175 -29 -260 -9 -41 -5 -150 8 -173 15 -29
21 -8 10 35 -4 18 -5 53 -1 78 4 25 10 68 13 95 3 28 10 68 14 90 10 46 6 152
-6 210 -7 31 -9 15 -9 -75z"/>
<path d="M626 514 c-60 -24 -84 -39 -75 -48 3 -3 27 6 54 19 28 13 59 25 71
25 11 0 29 7 40 15 18 14 18 14 -6 14 -14 -1 -52 -12 -84 -25z"/>
<path d="M1310 504 c0 -14 80 -58 88 -49 8 8 -16 23 -48 32 -14 3 -28 11 -32
17 -6 8 -8 8 -8 0z"/>
<path d="M160 493 c-8 -3 -24 -14 -36 -25 -20 -18 -54 -16 -54 3 0 5 -11 9
-24 9 -32 0 -43 -45 -25 -108 13 -47 41 -80 92 -108 27 -15 30 -14 51 10 12
14 26 26 31 26 17 0 75 75 75 96 0 55 -12 83 -43 93 -32 12 -44 12 -67 4z m62
-40 c30 -27 22 -65 -24 -111 -24 -25 -50 -42 -64 -42 -29 0 -84 31 -84 48 0 6
-4 12 -9 12 -15 0 -22 49 -11 70 14 26 25 25 52 -2 18 -18 23 -19 32 -6 11 15
64 47 80 48 5 0 18 -7 28 -17z"/>
<path d="M470 489 c0 -5 5 -9 10 -9 6 0 10 -7 10 -15 0 -15 -16 -19 -54 -15
-15 1 -17 -2 -10 -17 7 -16 12 -140 13 -350 1 -78 2 -83 22 -83 14 0 19 5 16
13 -3 8 -8 58 -12 113 -8 110 14 252 41 267 8 4 14 15 14 22 0 8 5 15 10 15 6
0 10 8 10 18 -1 17 -70 58 -70 41z"/>
<path d="M1710 425 c0 -42 3 -56 10 -45 5 8 10 29 10 45 0 17 -5 37 -10 45 -7
11 -10 -3 -10 -45z"/>
<path d="M2146 423 c7 -16 14 -34 14 -41 0 -7 5 -10 11 -6 8 4 8 9 0 17 -6 6
-11 21 -11 34 0 13 -6 23 -14 23 -13 0 -13 -4 0 -27z"/>
<path d="M2079 412 c-15 -18 -15 -44 2 -135 6 -34 7 -63 1 -70 -13 -18 -9 -60
7 -65 10 -3 12 1 8 17 -3 11 -1 23 3 26 8 5 4 234 -3 242 -2 1 -10 -5 -18 -15z"/>
<path d="M1846 349 c-7 -35 -15 -138 -9 -114 3 11 9 22 13 25 11 8 19 86 10
101 -6 9 -10 6 -14 -12z"/>
<path d="M2780 323 c0 -7 -12 -13 -27 -15 -26 -3 -27 -4 -24 -73 1 -38 6 -74
9 -80 4 -5 12 -41 17 -79 6 -42 15 -71 24 -74 10 -3 11 3 6 28 -12 56 -8 163
9 220 14 48 15 56 1 69 -9 9 -15 11 -15 4z"/>
<path d="M2200 314 c0 -10 49 -65 76 -86 30 -24 31 -19 2 15 -13 14 -31 37
-41 51 -16 24 -37 35 -37 20z"/>
<path d="M0 263 c0 -41 1 -43 30 -43 37 0 37 6 0 50 l-29 35 -1 -42z"/>
<path d="M2985 248 c-4 -29 -8 -85 -9 -125 -1 -61 -5 -75 -25 -97 -22 -24 -23
-26 -5 -26 45 1 51 17 53 163 1 75 0 137 -2 137 -2 0 -8 -24 -12 -52z"/>
<path d="M2388 237 c-10 -51 45 -122 110 -142 12 -3 22 -11 22 -16 0 -5 9 -9
19 -9 37 0 51 -12 51 -41 0 -19 5 -29 14 -29 12 0 15 14 14 60 -1 60 -11 78
-23 40 -8 -24 -18 -25 -35 -5 -7 8 -18 15 -25 15 -14 0 -116 67 -127 83 -3 6
-4 16 -1 23 2 7 0 20 -5 30 -8 14 -10 13 -14 -9z"/>
<path d="M1816 149 c-9 -48 -7 -95 6 -124 8 -18 14 -22 19 -13 4 6 3 21 -4 32
-6 12 -10 47 -9 79 3 63 -2 74 -12 26z"/>
<path d="M2316 172 c-4 -6 4 -18 16 -26 20 -14 20 -19 10 -54 -7 -22 -12 -50
-12 -63 1 -20 4 -18 20 15 11 22 20 47 20 56 0 9 5 21 11 27 14 14 3 33 -20
33 -9 0 -22 5 -28 11 -7 7 -13 7 -17 1z"/>
<path d="M190 110 c-10 -6 -11 -10 -2 -10 6 0 12 -8 12 -19 0 -10 7 -24 15
-31 13 -11 15 -8 15 19 0 17 0 34 1 39 0 11 -25 13 -41 2z"/>
<path d="M2100 89 c0 -21 80 -89 103 -89 22 1 21 1 -3 21 -14 11 -36 31 -50
43 -37 33 -50 39 -50 25z"/>
<path d="M1981 48 c1 -37 2 -39 9 -18 12 36 12 60 0 60 -5 0 -10 -19 -9 -42z"/>
<path d="M2053 63 c-16 -33 -17 -63 -3 -63 15 0 22 23 18 59 l-3 31 -12 -27z"/>
<path d="M55 10 c-22 -6 -12 -8 40 -8 49 0 62 2 45 8 -31 10 -46 10 -85 0z"/>
<path d="M220 11 c0 -5 30 -7 68 -4 96 7 99 11 10 12 -43 1 -78 -3 -78 -8z"/>
</g>
</svg>
