<svg width="1200" height="720" viewBox="0 0 1200 720" fill="none" xmlns="http://www.w3.org/2000/svg">
<g clip-path="url(#clip0_4368_321039)">
<rect width="1200" height="720" fill="white"/>
<path d="M752.5 747.161C779.128 665.229 878.074 616.801 960.785 633.914C976.73 637.213 997.348 647.592 1010.88 656.963C1014.38 659.385 1014.02 653.808 1014.36 651.596C1015.54 643.932 1018.8 636.95 1023.83 630.967C1043.18 607.931 1091.24 623.262 1113.5 631.178C1148.74 643.706 1181.64 661.762 1216.22 675.908C1222.72 678.567 1220.23 670.723 1220.54 666.33C1221.9 646.552 1245.7 632.2 1262.53 626.336C1282.04 619.536 1303.65 614.336 1324.42 614.548C1331.52 614.621 1337.64 616.69 1344.2 619.179C1346.81 620.169 1352.83 624.337 1355.68 623.705C1358.18 623.149 1351.69 609.877 1351.15 608.128C1348.14 598.352 1351.31 593.549 1358.73 586.131C1377.39 567.472 1396.57 567.187 1421.98 567.187C1438.28 567.187 1455.56 565.4 1470.5 572.87" stroke="#FF8577" stroke-width="48" stroke-linecap="round" stroke-linejoin="round"/>
<path d="M752.5 747.161C779.128 665.229 878.074 616.801 960.785 633.914C976.73 637.213 997.348 647.592 1010.88 656.963C1014.38 659.385 1014.02 653.808 1014.36 651.596C1015.54 643.932 1018.8 636.95 1023.83 630.967C1043.18 607.931 1091.24 623.262 1113.5 631.178C1148.74 643.706 1181.64 661.762 1216.22 675.908C1222.72 678.567 1220.23 670.723 1220.54 666.33C1221.9 646.552 1245.7 632.2 1262.53 626.336C1282.04 619.536 1303.65 614.336 1324.42 614.548C1331.52 614.621 1337.64 616.69 1344.2 619.179C1346.81 620.169 1352.83 624.337 1355.68 623.705C1358.18 623.149 1351.69 609.877 1351.15 608.128C1348.14 598.352 1351.31 593.549 1358.73 586.131C1377.39 567.472 1396.57 567.187 1421.98 567.187C1438.28 567.187 1455.56 565.4 1470.5 572.87" stroke="black" stroke-width="4" stroke-linecap="round" stroke-linejoin="round"/>
<circle cx="871.5" cy="639.5" r="8" fill="white" stroke="black" stroke-width="4"/>
<circle cx="1011.75" cy="657" r="8" fill="white" stroke="black" stroke-width="4"/>
<circle cx="1110.75" cy="630.75" r="8" fill="white" stroke="black" stroke-width="4"/>
<path d="M-291.75 113.563C-199.875 113.563 -108 113.563 -16.1252 113.563C-9.3089 113.563 -8.68305 113.191 -8.81422 120.143C-8.93425 126.504 -10.4592 132.674 -10.4592 139.06C-10.4592 141.552 -9.10298 139.362 -8.08312 138.146C-0.502985 129.108 7.80413 121.119 16.9571 113.654C38.7423 95.8875 63.1883 80.2803 90.2499 71.9814C98.3288 69.5039 112.409 66.5736 120.956 69.4226C128.802 72.0377 124.429 108.186 124.429 116.304C124.429 118.739 122.826 129.717 124.794 131.292C126.358 132.543 161.816 107.274 164.457 105.703C185.159 93.3938 258.032 51.1721 261.784 99.946C262.572 110.189 262.607 120.39 262.607 130.652C262.607 140.98 303.425 116.398 304.736 115.756C334.454 101.21 361.524 90.1222 394.662 88.9795C401.183 88.7546 407.73 88.4614 413.944 90.5331" stroke="#699BF7" stroke-width="48" stroke-linecap="round" stroke-linejoin="round"/>
<path d="M-291.75 113.563C-262.342 113.563 -10.3392 107.292 -10.4592 113.654C-10.5792 120.016 -10.4592 132.674 -10.4592 139.06C-10.4592 141.552 -9.10298 139.362 -8.08312 138.146C-0.502985 129.108 7.80413 121.119 16.9571 113.654C38.7423 95.8875 63.1883 80.2803 90.2499 71.9814C98.3288 69.5039 112.409 66.5736 120.956 69.4226C128.802 72.0377 124.429 108.186 124.429 116.304C124.429 118.739 122.826 129.717 124.794 131.292C126.358 132.543 161.816 107.274 164.457 105.703C185.159 93.3938 258.032 51.1721 261.784 99.946C262.572 110.189 262.607 120.39 262.607 130.652C262.607 140.98 303.425 116.398 304.736 115.756C334.454 101.21 361.524 90.1222 394.662 88.9795C401.183 88.7546 407.73 88.4614 413.944 90.5331" stroke="black" stroke-width="4" stroke-linecap="round" stroke-linejoin="round"/>
<circle cx="413.75" cy="90" r="8" fill="white" stroke="black" stroke-width="4"/>
<circle cx="265.25" cy="129.75" r="8" fill="white" stroke="black" stroke-width="4"/>
<circle cx="224.75" cy="79.25" r="8" fill="white" stroke="black" stroke-width="4"/>
<circle cx="123.5" cy="133.5" r="8" fill="white" stroke="black" stroke-width="4"/>
<circle cx="117.5" cy="68.25" r="8" fill="white" stroke="black" stroke-width="4"/>
<rect x="267.25" y="570.25" width="132" height="58.5" fill="#5551FF"/>
<path fill-rule="evenodd" clip-rule="evenodd" d="M390.828 548.011L428.5 525.75L419.89 570.521L410.875 551.141L390.828 548.011Z" fill="#5551FF" stroke="black" stroke-width="4" stroke-linecap="square"/>
<rect x="267.25" y="570.25" width="132" height="58.5" stroke="black" stroke-width="4"/>
<rect x="549" y="52.75" width="132.25" height="58.5" fill="#F24E1E"/>
<path fill-rule="evenodd" clip-rule="evenodd" d="M556.422 131.989L518.75 154.25L527.36 109.479L536.375 128.859L556.422 131.989Z" fill="#F24E1E" stroke="black" stroke-width="4" stroke-linecap="square"/>
<rect x="549" y="52.75" width="132.25" height="58.5" stroke="black" stroke-width="4"/>
<rect x="72" y="292" width="859" height="184" fill="black"/>
<rect x="46" y="266" width="863" height="188" fill="#FFC700"/>
<rect x="898" y="442" width="22" height="22" fill="white" stroke="black" stroke-width="4"/>
<rect x="35" y="443" width="22" height="22" fill="white" stroke="black" stroke-width="4"/>
<rect x="898" y="255" width="22" height="22" fill="white" stroke="black" stroke-width="4"/>
<rect x="35" y="255" width="22" height="22" fill="white" stroke="black" stroke-width="4"/>
<path d="M91.5516 404V311.6H162.568V328.232H111.616V352.256H152.404V368.888H111.616V404H91.5516ZM170.156 329.024V311.336H190.088V329.024H170.156ZM170.816 404V338H189.56V404H170.816ZM214.421 429.74C201.881 429.74 197.921 423.668 197.921 417.332C197.921 412.052 202.277 408.224 207.029 406.772V400.7C202.805 399.512 199.505 396.608 199.505 391.856C199.505 384.728 204.653 381.296 210.329 379.448V373.508C205.709 370.208 202.805 366.512 202.805 359.78C202.805 345.92 214.817 336.02 230.261 336.02C241.085 336.02 250.985 340.244 254.417 349.88H260.093C261.149 340.244 264.185 338 270.521 338H273.953V352.256H266.693C262.601 352.256 261.545 353.18 260.753 359.912L260.621 361.1C259.037 375.356 247.553 384.068 232.109 384.068C227.225 384.068 222.341 383.54 218.381 381.824C214.685 382.88 213.365 384.332 213.365 386.444C213.365 389.348 216.137 389.348 219.965 389.348H248.345C262.469 389.348 271.313 398.588 271.313 409.28C271.313 422.612 261.281 429.74 248.345 429.74H214.421ZM231.977 371.792C238.973 371.792 243.593 367.304 243.593 360.572C243.593 353.708 238.973 348.692 231.977 348.692C224.981 348.692 220.361 353.708 220.361 360.572C220.361 367.304 224.981 371.792 231.977 371.792ZM218.909 416.144H244.649C250.853 416.144 252.833 413.636 252.833 409.94C252.833 406.904 250.853 404 244.649 404H215.741C214.157 404.924 212.309 407.3 212.309 409.94C212.309 414.164 215.345 416.144 218.909 416.144ZM280.848 404V338H296.952C296.952 342.224 294.444 348.032 291.672 351.728H299.988C302.1 342.752 307.644 336.02 317.676 336.02C325.596 336.02 333.12 341.036 335.1 351.728H341.304C344.604 341.3 351.996 336.02 360.18 336.02C372.06 336.02 381.696 344.204 381.696 361.1V404H362.952V363.872C362.952 355.028 358.86 351.464 352.656 351.464C340.776 351.464 340.512 363.74 340.512 370.34V404H322.032V363.872C322.032 355.028 317.94 351.464 311.736 351.464C299.856 351.464 299.592 363.74 299.592 370.34V404H280.848ZM412.645 406.112C400.501 406.112 391.525 398.72 391.525 387.104C391.525 368.624 411.061 363.212 432.973 361.1V358.592C432.973 352.916 429.673 349.484 422.149 349.484C413.569 349.484 409.213 353.708 407.629 359.912L390.733 356.216C391.789 345.92 402.745 336.02 422.017 336.02C440.497 336.02 451.453 344.204 451.453 361.628V385.784C451.453 389.084 451.849 389.744 455.413 389.744H461.221V404H453.433C441.817 404 439.309 400.04 439.045 390.272H432.841C430.201 398.852 423.997 406.112 412.645 406.112ZM419.113 392.384C426.373 392.384 432.973 387.632 432.973 376.94V372.716C420.829 374.168 410.533 376.544 410.533 385.256C410.533 389.612 413.437 392.384 419.113 392.384ZM535.876 406.112C521.884 406.112 516.868 397.136 513.568 390.536H505.648C508.288 394.364 511.324 399.38 511.324 404H494.296V311.6H513.04V324.536C513.04 340.244 509.08 346.448 505.78 351.596H513.7C516.604 344.864 522.28 336.02 535.876 336.02C551.98 336.02 563.068 350.144 563.068 371C563.068 391.856 551.98 406.112 535.876 406.112ZM527.956 391.856C536.668 391.856 543.4 386.444 543.4 371C543.4 355.556 536.668 350.144 527.956 350.144C518.584 350.144 512.248 357.008 512.248 371C512.248 384.992 518.716 391.856 527.956 391.856ZM590.386 406.112C578.242 406.112 569.266 398.72 569.266 387.104C569.266 368.624 588.802 363.212 610.714 361.1V358.592C610.714 352.916 607.414 349.484 599.89 349.484C591.31 349.484 586.954 353.708 585.37 359.912L568.474 356.216C569.53 345.92 580.486 336.02 599.758 336.02C618.238 336.02 629.194 344.204 629.194 361.628V385.784C629.194 389.084 629.59 389.744 633.154 389.744H638.962V404H631.174C619.558 404 617.05 400.04 616.786 390.272H610.582C607.942 398.852 601.738 406.112 590.386 406.112ZM596.854 392.384C604.114 392.384 610.714 387.632 610.714 376.94V372.716C598.57 374.168 588.274 376.544 588.274 385.256C588.274 389.612 591.178 392.384 596.854 392.384ZM670.407 405.848C654.831 405.848 642.159 398.588 639.387 386.972L656.415 381.56C656.679 383.012 658.659 392.648 671.463 392.648C678.063 392.648 681.495 389.744 681.495 386.048C681.495 383.012 680.043 380.372 673.311 379.052L663.939 377.204C650.079 374.432 642.027 369.812 642.027 356.876C642.027 344.336 652.719 336.02 670.407 336.02C686.907 336.02 695.355 344.6 698.259 351.2L682.815 358.196C680.835 352.784 676.083 348.956 669.483 348.956C663.147 348.956 660.111 351.728 660.111 355.292C660.111 358.724 662.091 360.44 669.219 361.76L678.327 363.476C690.735 365.852 701.031 371.528 701.031 384.068C701.031 397.268 689.679 405.848 670.407 405.848ZM709.53 329.024V311.336H729.462V329.024H709.53ZM710.19 404V338H728.934V404H710.19ZM773.86 406.112C753.532 406.112 738.484 392.12 738.484 370.868C738.484 349.616 754.06 336.02 773.992 336.02C789.832 336.02 801.052 344.6 805.408 355.82L788.116 362.288C785.476 354.764 780.196 350.804 773.332 350.804C764.488 350.804 757.36 357.272 757.36 370.868C757.36 384.464 764.752 391.196 773.464 391.196C781.12 391.196 785.872 387.104 788.776 378.656L806.464 384.992C801.448 397.664 789.436 406.112 773.86 406.112ZM839.769 405.848C824.193 405.848 811.521 398.588 808.749 386.972L825.777 381.56C826.041 383.012 828.021 392.648 840.825 392.648C847.425 392.648 850.857 389.744 850.857 386.048C850.857 383.012 849.405 380.372 842.673 379.052L833.301 377.204C819.441 374.432 811.389 369.812 811.389 356.876C811.389 344.336 822.081 336.02 839.769 336.02C856.269 336.02 864.717 344.6 867.621 351.2L852.177 358.196C850.197 352.784 845.445 348.956 838.845 348.956C832.509 348.956 829.473 351.728 829.473 355.292C829.473 358.724 831.453 360.44 838.581 361.76L847.689 363.476C860.097 365.852 870.393 371.528 870.393 384.068C870.393 397.268 859.041 405.848 839.769 405.848Z" fill="black"/>
<rect x="46" y="266" width="863" height="188" stroke="black" stroke-width="4"/>
<rect x="1016.5" y="375.5" width="132.25" height="58.5" fill="#A259FF"/>
<path fill-rule="evenodd" clip-rule="evenodd" d="M1021.42 353.261L983.75 331L992.36 375.771L1001.38 356.391L1021.42 353.261Z" fill="#A259FF" stroke="black" stroke-width="4" stroke-linecap="square"/>
<rect x="1016.5" y="375.5" width="132.25" height="58.5" stroke="black" stroke-width="4"/>
</g>
<defs>
<clipPath id="clip0_4368_321039">
<rect width="1200" height="720" fill="white"/>
</clipPath>
</defs>
</svg>
